HIERARCHY
ROOT Hips
{
	OFFSET 0.000000 0.000000 0.000000
	CHANNELS 6 Xposition Yposition Zposition Yrotation Xrotation Zrotation
	JOINT Chest
	{
		OFFSET 0.000000 -0.009281 11.569106
		CHANNELS 3 Yrotation Xrotation Zrotation
		JOINT Chest2
		{
			OFFSET -0.000000 0.016865 9.269641
			CHANNELS 3 Yrotation Xrotation Zrotation
			JOINT Chest3
			{
				OFFSET -0.000000 0.000001 8.374491
				CHANNELS 3 Yrotation Xrotation Zrotation
				JOINT Chest4
				{
					OFFSET -0.000000 0.000001 8.374493
					CHANNELS 3 Yrotation Xrotation Zrotation
					JOINT Neck
					{
						OFFSET -0.000000 0.000002 12.152554
						CHANNELS 3 Yrotation Xrotation Zrotation
						JOINT Head
						{
							OFFSET -0.000000 0.040101 7.802319
							CHANNELS 3 Yrotation Xrotation Zrotation
							End Site
							{
								OFFSET -0.000000 0.020947 14.853096
							}
						}
					}
					JOINT RightCollar
					{
						OFFSET 2.894404 0.000001 6.791374
						CHANNELS 3 Yrotation Xrotation Zrotation
						JOINT RightShoulder
						{
							OFFSET 13.574684 0.000001 0.000000
							CHANNELS 3 Yrotation Xrotation Zrotation
							JOINT RightElbow
							{
								OFFSET 23.923903 0.000002 0.000000
								CHANNELS 3 Yrotation Xrotation Zrotation
								JOINT RightWrist
								{
									OFFSET 19.846718 0.012767 0.000000
									CHANNELS 3 Yrotation Xrotation Zrotation
									End Site
									{
										OFFSET 14.973145 0.000001 0.000000
									}
								}
							}
						}
					}
					JOINT LeftCollar
					{
						OFFSET -2.894404 0.000001 6.791374
						CHANNELS 3 Yrotation Xrotation Zrotation
						JOINT LeftShoulder
						{
							OFFSET -13.574684 -0.000001 0.000000
							CHANNELS 3 Yrotation Xrotation Zrotation
							JOINT LeftElbow
							{
								OFFSET -23.923903 -0.000002 0.000000
								CHANNELS 3 Yrotation Xrotation Zrotation
								JOINT LeftWrist
								{
									OFFSET -19.846718 0.012763 0.000000
									CHANNELS 3 Yrotation Xrotation Zrotation
									End Site
									{
										OFFSET -14.973145 -0.000001 0.000000
									}
								}
							}
						}
					}
				}
			}
		}
	}
	JOINT RightHip
	{
		OFFSET 9.469263 0.004643 0.045487
		CHANNELS 3 Yrotation Xrotation Zrotation
		JOINT RightKnee
		{
			OFFSET 0.000000 0.002661 -40.478676
			CHANNELS 3 Yrotation Xrotation Zrotation
			JOINT RightAnkle
			{
				OFFSET 0.000000 0.049106 -35.224068
				CHANNELS 3 Yrotation Xrotation Zrotation
				JOINT RightToe
				{
					OFFSET -0.000001 12.539529 -6.151390
					CHANNELS 3 Yrotation Xrotation Zrotation
					End Site
					{
						OFFSET -0.000001 5.044994 -1.291870
					}
				}
			}
		}
	}
	JOINT LeftHip
	{
		OFFSET -9.469263 0.004641 0.045487
		CHANNELS 3 Yrotation Xrotation Zrotation
		JOINT LeftKnee
		{
			OFFSET 0.000000 0.002661 -40.478676
			CHANNELS 3 Yrotation Xrotation Zrotation
			JOINT LeftAnkle
			{
				OFFSET 0.000000 0.049106 -35.224068
				CHANNELS 3 Yrotation Xrotation Zrotation
				JOINT LeftToe
				{
					OFFSET -0.000001 12.539529 -6.151390
					CHANNELS 3 Yrotation Xrotation Zrotation
					End Site
					{
						OFFSET -0.000001 5.044994 -1.291870
					}
				}
			}
		}
	}
}
MOTION
Frames: 11
Frame Time: 0.016667
11.050839 6.536148 83.060226 -4.788229 -1.720878 -108.466457 -0.316294 -2.473576 0.668005 -0.137084 -1.100097 0.292122 -0.137084 -1.100097 0.292124 -0.102284 -0.825139 0.218840 1.145785 -16.448624 -2.381564 1.277020 5.638189 -4.013196 4.344091 21.828699 -4.048734 33.404645 54.391723 29.590961 27.075372 0.056989 74.810864 -22.210944 22.076111 19.406125 -5.065562 17.087605 -1.958013 -34.741457 52.602770 -31.239984 -27.556887 8.368532 -71.005731 12.415730 29.365927 -19.328476 -0.424595 -6.970599 -3.370179 1.371971 -2.242095 -6.723249 -0.568063 3.718746 2.229164 0.034523 0.015090 0.001124 -0.691220 -7.636051 0.441417 0.732786 -1.202344 1.808350 -0.259225 3.902881 1.224542 0.026430 -0.009237 0.000658 
11.047045 6.544965 83.057961 -4.791659 -1.737359 -108.502445 -0.300755 -2.472581 0.656102 -0.129832 -1.098880 0.286899 -0.129832 -1.098881 0.286900 -0.096855 -0.824222 0.214931 1.130520 -16.460331 -2.372712 1.252108 5.616196 -4.002113 4.437336 22.297065 -3.916629 32.810552 54.178440 29.214553 23.244052 -0.364624 74.157447 -24.693919 20.849813 20.367810 -4.899473 17.032364 -1.672091 -34.448336 52.539847 -31.282683 -17.596799 7.544522 -68.096556 16.512305 25.957109 -19.629803 -0.427185 -6.962080 -3.302954 1.380053 -2.256412 -6.758956 -0.568120 3.713894 2.258356 0.031504 0.012401 0.001649 -0.688221 -7.642042 0.392397 0.730450 -1.208006 1.863320 -0.253892 3.909614 1.264914 0.024385 -0.013253 0.000505 
11.044265 6.558859 83.057365 -4.830057 -1.765452 -108.558583 -0.289652 -2.509512 0.673868 -0.123610 -1.114760 0.296472 -0.123610 -1.114760 0.296473 -0.092165 -0.836130 0.222123 1.138632 -16.439616 -2.390319 1.260399 5.654647 -4.032087 4.406072 22.251148 -3.999171 32.763810 54.148261 29.120313 27.255182 -0.663260 74.614113 -22.666019 23.585094 20.784706 -4.924748 17.132298 -1.526742 -34.045529 52.396164 -31.057724 -13.595973 6.505585 -67.088379 14.882569 34.029078 -18.906503 -0.427215 -6.990297 -3.316099 1.379880 -2.272911 -6.717325 -0.559778 3.709257 2.264889 0.022956 0.009824 0.001077 -0.692987 -7.670582 0.361347 0.734477 -1.246903 1.911406 -0.241252 3.930141 1.287957 0.015375 -0.012357 -0.001171 
11.038610 6.568939 83.058388 -4.886340 -1.798736 -108.624911 -0.278830 -2.544301 0.710131 -0.118461 -1.130443 0.314867 -0.118461 -1.130443 0.314865 -0.088261 -0.847894 0.235922 1.161310 -16.411420 -2.425663 1.289226 5.707119 -4.089867 4.298540 21.732994 -4.117989 32.944799 53.879411 29.032648 35.048122 -0.055613 76.086812 -17.142752 26.029730 20.071086 -5.064676 16.977123 -1.688095 -33.694662 52.181508 -30.568778 -18.708394 6.976914 -68.651174 7.877154 43.201295 -19.332683 -0.434846 -7.028898 -3.381155 1.381329 -2.300073 -6.616347 -0.550909 3.704785 2.309657 0.016454 0.008206 0.001767 -0.697928 -7.710889 0.356633 0.733441 -1.294772 1.942680 -0.220451 3.952414 1.325753 0.004106 -0.010450 -0.002424 
11.031769 6.582045 83.056885 -4.931695 -1.824450 -108.685201 -0.281829 -2.561837 0.752143 -0.119443 -1.137924 0.335035 -0.119443 -1.137924 0.335033 -0.088956 -0.853510 0.251045 1.202972 -16.390746 -2.469365 1.350478 5.745970 -4.156309 4.298663 21.289302 -4.067890 33.002518 53.503406 28.822022 41.921864 0.701189 77.721501 -11.201684 28.536749 18.203550 -5.015849 16.578409 -1.780247 -34.033467 51.949913 -30.456592 -30.771221 8.088774 -72.581955 1.467726 47.774287 -18.566698 -0.442449 -7.051257 -3.466463 1.383977 -2.336738 -6.512341 -0.548340 3.711822 2.342614 0.013443 0.002453 0.000448 -0.705629 -7.742342 0.381017 0.733144 -1.333505 1.969212 -0.200106 3.975261 1.342575 -0.006148 -0.013123 -0.002700 
11.024850 6.595857 83.053940 -4.948502 -1.842994 -108.734597 -0.284444 -2.558864 0.772384 -0.120535 -1.135917 0.344846 -0.120535 -1.135916 0.344844 -0.089757 -0.852006 0.258400 1.242731 -16.389993 -2.497862 1.414107 5.748002 -4.195007 4.353315 21.143339 -3.939807 33.142014 53.459816 28.917597 46.254745 1.285835 78.481879 -5.851831 31.273561 16.735813 -4.955840 16.360535 -1.843600 -34.844982 51.980496 -30.979781 -44.347343 8.510666 -76.463879 -2.278162 49.402038 -16.709327 -0.447991 -7.040195 -3.521393 1.384032 -2.381023 -6.441602 -0.544157 3.722998 2.367734 0.014174 -0.003000 0.000541 -0.709384 -7.754106 0.431948 0.730237 -1.349416 1.986149 -0.178397 3.987185 1.328429 -0.013961 -0.017032 -0.003046 
11.019259 6.610171 83.054276 -4.947288 -1.857323 -108.766630 -0.286884 -2.545728 0.776420 -0.121407 -1.129922 0.346436 -0.121408 -1.129922 0.346434 -0.090412 -0.847510 0.259596 1.278747 -16.412579 -2.515652 1.475166 5.706735 -4.214973 4.343014 21.177574 -3.961102 33.637527 53.836128 29.575003 46.413553 1.308236 77.935368 -4.059603 33.191550 17.388731 -4.984824 16.305465 -1.988125 -35.943973 52.721708 -32.113695 -51.352579 8.289865 -77.850797 -2.444601 50.055192 -15.253180 -0.443555 -7.015159 -3.509253 1.377317 -2.417495 -6.422712 -0.538142 3.726400 2.369083 0.014879 -0.002481 0.000395 -0.704439 -7.753451 0.495643 0.722124 -1.350945 1.981348 -0.163966 3.986890 1.303428 -0.013564 -0.016848 -0.002687 
11.014238 6.619589 83.058899 -4.946911 -1.863646 -108.783747 -0.285477 -2.535191 0.758185 -0.121322 -1.125964 0.337443 -0.121322 -1.125963 0.337442 -0.090367 -0.844540 0.252852 1.298536 -16.450961 -2.517771 1.512062 5.635922 -4.211528 4.246706 21.138232 -4.104697 33.986424 54.180284 29.906673 41.736141 0.737559 77.046453 -7.896352 32.308359 18.615088 -5.079155 16.486396 -2.090957 -36.445391 53.409409 -32.617381 -47.489786 8.207236 -76.091524 0.690956 46.373508 -16.529760 -0.444065 -6.992206 -3.433778 1.370844 -2.445784 -6.454734 -0.529921 3.720733 2.359474 0.013569 0.003586 0.000171 -0.697802 -7.757070 0.534204 0.709161 -1.337596 1.975927 -0.162694 3.969706 1.288478 -0.004204 -0.009865 -0.001069 
11.009851 6.627452 83.063675 -4.954684 -1.867222 -108.788931 -0.268338 -2.527743 0.714659 -0.114227 -1.123418 0.317218 -0.114227 -1.123418 0.317216 -0.085085 -0.842623 0.237695 1.284280 -16.489762 -2.501659 1.492256 5.563713 -4.186401 4.215493 21.089749 -4.111461 33.795209 54.322182 29.643888 34.904493 0.088772 76.282845 -16.117436 27.283138 18.516727 -5.188375 16.736726 -2.199365 -35.353913 53.153768 -31.592220 -37.698539 8.799170 -73.510293 7.135017 39.129184 -17.786021 -0.446790 -6.981684 -3.338663 1.366357 -2.466730 -6.525862 -0.521729 3.714405 2.364211 0.011343 0.009152 -0.000332 -0.694721 -7.770669 0.533228 0.699962 -1.318155 1.975038 -0.169769 3.949479 1.290255 0.007825 -0.004034 0.000090 
11.005392 6.636850 83.064163 -4.962370 -1.880279 -108.803595 -0.248444 -2.533947 0.682521 -0.105210 -1.126283 0.302073 -0.105210 -1.126283 0.302076 -0.078348 -0.844764 0.226353 1.272416 -16.503836 -2.492358 1.473878 5.537415 -4.173258 4.284013 21.483054 -3.981056 33.157618 53.964058 29.267706 27.792791 0.185253 75.328456 -22.300856 22.322655 19.119265 -5.012924 16.659269 -1.972079 -34.220494 52.405569 -30.748084 -26.450558 9.376273 -70.493290 14.173951 31.274248 -18.722278 -0.446424 -6.975053 -3.258082 1.367604 -2.484332 -6.600407 -0.510789 3.707441 2.377874 0.006992 0.012009 -0.001470 -0.685898 -7.784376 0.515155 0.688643 -1.307455 1.993960 -0.170306 3.942079 1.305131 0.015505 -0.005289 0.001444 
11.000628 6.648225 83.061691 -4.980321 -1.904864 -108.836599 -0.233332 -2.565174 0.678002 -0.097750 -1.139530 0.300971 -0.097750 -1.139530 0.300971 -0.072749 -0.854696 0.225540 1.286246 -16.489310 -2.503005 1.495416 5.564582 -4.188197 4.352430 21.735330 -3.877841 32.943874 54.002819 29.299012 24.831846 -0.081342 74.699703 -24.618490 21.093982 19.823441 -4.769876 16.563747 -1.519436 -34.093760 52.247283 -31.002143 -17.306458 8.447686 -67.530306 18.868285 27.497418 -18.713195 -0.438822 -6.981598 -3.223888 1.360396 -2.503446 -6.626717 -0.489055 3.704326 2.401184 -0.001173 0.010408 -0.002181 -0.676345 -7.802911 0.488923 0.683861 -1.317014 2.034678 -0.164960 3.946627 1.314846 0.014751 -0.007393 0.002230 
